<svg xmlns="http://www.w3.org/2000/svg" viewBox="0 0 512.001 512.001" width="512" height="512"><path d="M507.105 388.858L374.247 256.001l79.986-79.986c32.599-32.601 32.599-85.645-.001-118.247-32.6-32.599-85.646-32.599-118.246 0l-79.985 79.985L123.143 4.897c-6.527-6.527-17.119-6.53-23.649 0L4.898 99.495c-6.531 6.531-6.531 17.118 0 23.649l132.858 132.858-64.377 64.377a16.93 16.93 0 0 0-4.324 7.482L34.257 457.253c-3.34 12.417 8.056 23.836 20.492 20.492l129.394-34.797a17.048 17.048 0 0 0 7.482-4.324l64.377-64.377L388.86 507.104c6.526 6.526 17.119 6.53 23.649 0l94.597-94.597c6.526-6.527 6.529-17.119-.001-23.649zM359.635 81.419c19.561-19.56 51.387-19.559 70.948 0 19.56 19.561 19.56 51.387 0 70.948l-9.038 9.038-70.948-70.948 9.038-9.038zM40.372 111.318L111.32 40.37l23.649 23.649-11.824 11.825c-6.531 6.531-6.531 17.118 0 23.649 6.53 6.531 17.118 6.532 23.649 0l11.824-11.825 26.436 26.436-35.474 35.474c-6.531 6.53-6.531 17.118 0 23.649 6.531 6.53 17.118 6.532 23.649 0l35.474-35.474 23.649 23.649-70.948 70.948L40.372 111.318zm286.578 2.786l23.65 23.65-218.098 218.097-23.649-23.649L326.95 114.104zM74.092 437.91l19.746-73.424 53.678 53.678-73.424 19.746zM179.8 403.15l-23.649-23.65 218.097-218.097 23.649 23.65L179.8 403.15zm220.883 68.481L279.651 350.597l70.948-70.948 23.649 23.65-35.474 35.474c-6.531 6.531-6.531 17.118 0 23.649 6.53 6.531 17.118 6.532 23.649 0l35.474-35.474 23.65 23.65-11.825 11.825c-6.531 6.531-6.531 17.118 0 23.649 6.53 6.531 17.118 6.532 23.649 0l11.825-11.825 26.436 26.436-70.949 70.948z" fill="#e84545"/></svg>