<svg xmlns="http://www.w3.org/2000/svg" width="512" height="512"><path d="M497 42.199H15c-8.284 0-15 6.716-15 15v309.979c0 8.284 6.716 15 15 15h173.273v57.624h-67.118c-8.284 0-15 6.716-15 15s6.716 15 15 15h269.689c8.284 0 15-6.716 15-15s-6.716-15-15-15h-67.118v-57.624H497c8.284 0 15-6.716 15-15V57.199c0-8.284-6.716-15-15-15zM293.727 439.803h-75.453v-57.624h75.453v57.624zM482 352.178H30V72.199h452v279.979z" fill="#e84545"/><path d="M444.311 96.647H67.688c-8.284 0-15 6.716-15 15V312.73c0 8.284 6.716 15 15 15h376.623c8.284 0 15-6.716 15-15V111.647c0-8.284-6.716-15-15-15zm-15 201.083H82.688V126.647h346.623V297.73z" fill="#e84545"/></svg>